<svg width="26" height="32" viewBox="0 0 26 32" fill="none" xmlns="http://www.w3.org/2000/svg">
<path d="M18 4.3706C18 2.65827 15.9884 1.73774 14.6926 2.85712L7.76317 8.84307C7.39988 9.1569 6.93583 9.32958 6.45576 9.32959L2.49998 9.32962C1.11928 9.32963 0 10.4489 0 11.8296V19.2691C0 20.6498 1.11929 21.7691 2.5 21.7691H6.45581C6.93589 21.7691 7.39994 21.9418 7.76324 22.2556L14.6926 28.2415C15.9884 29.3609 18 28.4403 18 26.728V15.5493V4.3706Z" fill="#A13A5F"/>
<path d="M22.5 20.05C23.4419 18.7966 24 17.2385 24 15.55C24 13.8616 23.4419 12.3035 22.5 11.05" stroke="#A13A5F" stroke-width="3" stroke-linecap="round"/>
</svg>
