<svg width="82" height="82" viewBox="0 0 82 82" fill="none" xmlns="http://www.w3.org/2000/svg">
<g clip-path="url(#clip0_2243_37007)">
<path fill-rule="evenodd" clip-rule="evenodd" d="M41.0011 1.70898C31.2678 1.71403 21.8536 5.16138 14.442 11.4346C7.03035 17.7078 2.10453 26.3979 0.545304 35.9508C-1.01392 45.5038 0.895109 55.2967 5.93108 63.5786C10.9671 71.8605 18.8016 78.0912 28.0337 81.1566C30.0705 81.5347 30.8376 80.2723 30.8376 79.199C30.8376 78.1256 30.7969 75.0136 30.7833 71.6113C19.3775 74.0753 16.9673 66.7981 16.9673 66.7981C15.1071 62.0727 12.4185 60.8306 12.4185 60.8306C8.69805 58.3059 12.6969 58.3532 12.6969 58.3532C16.818 58.6434 18.9837 62.5588 18.9837 62.5588C22.6363 68.7896 28.5768 66.9872 30.9123 65.9341C31.2789 63.2946 32.3449 61.4989 33.5194 60.4796C24.4083 59.4535 14.8355 55.9567 14.8355 40.3358C14.779 36.2847 16.2909 32.3669 19.0584 29.3931C18.6375 28.3671 17.2321 24.2222 19.4589 18.5922C19.4589 18.5922 22.9011 17.4986 30.7358 22.7708C37.456 20.9435 44.5462 20.9435 51.2664 22.7708C59.0943 17.4986 62.5296 18.5922 62.5296 18.5922C64.7633 24.2087 63.3579 28.3536 62.937 29.3931C65.7132 32.3674 67.2283 36.292 67.1667 40.3493C67.1667 56.004 57.5735 59.4535 48.4488 60.4593C49.9153 61.7285 51.2256 64.2059 51.2256 68.0132C51.2256 73.4677 51.1781 77.8556 51.1781 79.199C51.1781 80.2858 51.9181 81.5549 53.9956 81.1566C63.2288 78.0908 71.0641 71.859 76.1 63.5757C81.1359 55.2924 83.0439 45.498 81.4829 35.9442C79.9219 26.3903 74.9937 17.7002 67.5796 11.4281C60.1655 5.15591 50.7491 1.71083 41.0147 1.70898H41.0011Z" fill="white"/>
<path d="M15.5268 60.2422C15.4386 60.4447 15.1127 60.5054 14.8479 60.3637C14.5831 60.2219 14.3863 59.9586 14.4813 59.7494C14.5764 59.5401 14.8955 59.4861 15.1602 59.6279C15.425 59.7696 15.6287 60.0396 15.5268 60.2422Z" fill="white"/>
<path d="M17.1904 62.0851C17.0498 62.1555 16.8889 62.1752 16.7353 62.1407C16.5818 62.1062 16.445 62.0197 16.3485 61.896C16.0837 61.6125 16.0294 61.221 16.2331 61.0455C16.4367 60.87 16.8034 60.951 17.0682 61.2345C17.3329 61.518 17.394 61.9095 17.1904 62.0851Z" fill="white"/>
<path d="M18.806 64.4282C18.5548 64.6038 18.127 64.4282 17.8894 64.0772C17.8237 64.0142 17.7715 63.9387 17.7358 63.8552C17.7001 63.7717 17.6816 63.6819 17.6816 63.5912C17.6816 63.5004 17.7001 63.4106 17.7358 63.3271C17.7715 63.2436 17.8237 63.1681 17.8894 63.1051C18.1406 62.9364 18.5684 63.1051 18.806 63.4494C19.0436 63.7937 19.0504 64.2527 18.806 64.4282Z" fill="white"/>
<path d="M20.9997 66.6959C20.7756 66.9457 20.3208 66.8782 19.9474 66.5407C19.574 66.2031 19.4857 65.7441 19.7097 65.5011C19.9338 65.2581 20.3886 65.3256 20.7756 65.6563C21.1626 65.9871 21.2373 66.4529 20.9997 66.6959Z" fill="white"/>
<path d="M24.0748 68.0198C23.9729 68.3371 23.5112 68.4789 23.0496 68.3439C22.5879 68.2089 22.2824 67.8308 22.3707 67.5068C22.4589 67.1828 22.9274 67.0342 23.3958 67.1828C23.8643 67.3313 24.163 67.6891 24.0748 68.0198Z" fill="white"/>
<path d="M27.4283 68.2485C27.4283 68.5793 27.0481 68.8628 26.5593 68.8695C26.0705 68.8763 25.6699 68.6063 25.6699 68.2755C25.6699 67.9447 26.0501 67.6612 26.5389 67.6544C27.0277 67.6477 27.4283 67.911 27.4283 68.2485Z" fill="white"/>
<path d="M30.5505 67.7297C30.6116 68.0605 30.2722 68.4048 29.7834 68.4858C29.2945 68.5668 28.8668 68.371 28.8057 68.047C28.7446 67.7229 29.0977 67.3719 29.5729 67.2842C30.0481 67.1964 30.4894 67.3989 30.5505 67.7297Z" fill="white"/>
</g>
<defs>
<clipPath id="clip0_2243_37007">
<rect width="82" height="82" fill="white"/>
</clipPath>
</defs>
</svg>
