<svg width="82" height="82" viewBox="0 0 82 82" fill="none" xmlns="http://www.w3.org/2000/svg">
<g clip-path="url(#clip0_2444_36898)">
<path d="M41 7.3832C51.9547 7.3832 53.252 7.43125 57.5602 7.62344C61.5641 7.79961 63.7262 8.47227 65.1676 9.03281C67.0734 9.76953 68.4508 10.6664 69.8762 12.0918C71.3176 13.5332 72.1984 14.8945 72.9352 16.8004C73.4957 18.2418 74.1684 20.4199 74.3445 24.4078C74.5367 28.732 74.5848 30.0293 74.5848 40.968C74.5848 51.9227 74.5367 53.2199 74.3445 57.5281C74.1684 61.532 73.4957 63.6941 72.9352 65.1355C72.1984 67.0414 71.3016 68.4187 69.8762 69.8441C68.4348 71.2855 67.0734 72.1664 65.1676 72.9031C63.7262 73.4637 61.5481 74.1363 57.5602 74.3125C53.2359 74.5047 51.9387 74.5527 41 74.5527C30.0453 74.5527 28.7481 74.5047 24.4398 74.3125C20.4359 74.1363 18.2738 73.4637 16.8324 72.9031C14.9266 72.1664 13.5492 71.2695 12.1238 69.8441C10.6824 68.4027 9.80156 67.0414 9.06484 65.1355C8.5043 63.6941 7.83164 61.516 7.65547 57.5281C7.46328 53.2039 7.41524 51.9066 7.41524 40.968C7.41524 30.0133 7.46328 28.716 7.65547 24.4078C7.83164 20.4039 8.5043 18.2418 9.06484 16.8004C9.80156 14.8945 10.6984 13.5172 12.1238 12.0918C13.5652 10.6504 14.9266 9.76953 16.8324 9.03281C18.2738 8.47227 20.452 7.79961 24.4398 7.62344C28.7481 7.43125 30.0453 7.3832 41 7.3832ZM41 0C29.8691 0 28.4758 0.0480469 24.1035 0.240234C19.7473 0.432422 16.7523 1.13711 14.1578 2.14609C11.4512 3.20312 9.16094 4.59648 6.88672 6.88672C4.59649 9.16094 3.20313 11.4512 2.14609 14.1418C1.13711 16.7523 0.432422 19.7312 0.240234 24.0875C0.0480469 28.4758 0 29.8691 0 41C0 52.1309 0.0480469 53.5242 0.240234 57.8965C0.432422 62.2527 1.13711 65.2477 2.14609 67.8422C3.20313 70.5488 4.59649 72.8391 6.88672 75.1133C9.16094 77.3875 11.4512 78.7969 14.1418 79.8379C16.7523 80.8469 19.7313 81.5516 24.0875 81.7437C28.4598 81.9359 29.8531 81.984 40.984 81.984C52.1148 81.984 53.5082 81.9359 57.8805 81.7437C62.2367 81.5516 65.2316 80.8469 67.8262 79.8379C70.5168 78.7969 72.807 77.3875 75.0813 75.1133C77.3555 72.8391 78.7648 70.5488 79.8059 67.8582C80.8148 65.2477 81.5195 62.2688 81.7117 57.9125C81.9039 53.5402 81.952 52.1469 81.952 41.016C81.952 29.8852 81.9039 28.4918 81.7117 24.1195C81.5195 19.7633 80.8148 16.7684 79.8059 14.1738C78.7969 11.4512 77.4035 9.16094 75.1133 6.88672C72.8391 4.6125 70.5488 3.20312 67.8582 2.16211C65.2477 1.15312 62.2688 0.448437 57.9125 0.25625C53.5242 0.0480469 52.1309 0 41 0Z" fill="white"/>
<path d="M41 19.9395C29.3727 19.9395 19.9395 29.3727 19.9395 41C19.9395 52.6273 29.3727 62.0605 41 62.0605C52.6273 62.0605 62.0605 52.6273 62.0605 41C62.0605 29.3727 52.6273 19.9395 41 19.9395ZM41 54.6613C33.4566 54.6613 27.3387 48.5434 27.3387 41C27.3387 33.4566 33.4566 27.3387 41 27.3387C48.5434 27.3387 54.6613 33.4566 54.6613 41C54.6613 48.5434 48.5434 54.6613 41 54.6613Z" fill="white"/>
<path d="M67.8102 19.1063C67.8102 21.8289 65.6 24.0231 62.8934 24.0231C60.1707 24.0231 57.9766 21.8129 57.9766 19.1063C57.9766 16.3836 60.1867 14.1895 62.8934 14.1895C65.6 14.1895 67.8102 16.3996 67.8102 19.1063Z" fill="white"/>
</g>
<defs>
<clipPath id="clip0_2444_36898">
<rect width="82" height="82" fill="white"/>
</clipPath>
</defs>
</svg>
