<svg width="82" height="82" viewBox="0 0 82 82" fill="none" xmlns="http://www.w3.org/2000/svg">
<g clip-path="url(#clip0_2243_37008)">
<path d="M41 0C18.3562 0 0 18.3562 0 41C0 63.6438 18.3562 82 41 82C63.6438 82 82 63.6438 82 41C82 18.3562 63.6438 0 41 0ZM23.2619 34.2024C21.8637 34.2027 20.4968 33.7885 19.334 33.0119C18.1713 32.2353 17.2649 31.1314 16.7296 29.8397C16.1943 28.548 16.054 27.1266 16.3266 25.7552C16.5992 24.3838 17.2723 23.1241 18.2609 22.1352C19.2494 21.1464 20.509 20.473 21.8804 20.2001C23.2517 19.9271 24.6731 20.067 25.965 20.602C27.2568 21.137 28.3609 22.0431 29.1378 23.2057C29.9146 24.3682 30.3293 25.735 30.3293 27.1332C30.3288 29.0076 29.5841 30.8052 28.2589 32.1307C26.9337 33.4563 25.1363 34.2014 23.2619 34.2024ZM41 69.6732C39.6022 69.6732 38.2358 69.2587 37.0736 68.4821C35.9114 67.7056 35.0055 66.6018 34.4706 65.3104C33.9357 64.019 33.7957 62.598 34.0684 61.2271C34.3411 59.8561 35.0142 58.5968 36.0026 57.6085C36.991 56.6201 38.2503 55.947 39.6212 55.6743C40.9922 55.4016 42.4132 55.5415 43.7046 56.0764C44.996 56.6114 46.0997 57.5172 46.8763 58.6794C47.6529 59.8416 48.0674 61.208 48.0674 62.6058C48.0674 64.4802 47.3228 66.2778 45.9974 67.6032C44.672 68.9286 42.8744 69.6732 41 69.6732ZM41 51.9351C39.6022 51.9351 38.2358 51.5206 37.0736 50.7441C35.9114 49.9675 35.0055 48.8637 34.4706 47.5723C33.9357 46.2809 33.7957 44.8599 34.0684 43.489C34.3411 42.118 35.0142 40.8588 36.0026 39.8704C36.991 38.882 38.2503 38.2089 39.6212 37.9362C40.9922 37.6635 42.4132 37.8034 43.7046 38.3384C44.996 38.8733 46.0997 39.7791 46.8763 40.9413C47.6529 42.1036 48.0674 43.47 48.0674 44.8678C48.0681 45.7963 47.8858 46.7159 47.5309 47.574C47.1761 48.432 46.6556 49.2118 45.9993 49.8686C45.3429 50.5254 44.5636 51.0465 43.7058 51.402C42.848 51.7575 41.9286 51.9405 41 51.9405V51.9351ZM41 34.197C39.6018 34.1974 38.2349 33.7831 37.0721 33.0065C35.9094 32.23 35.003 31.1261 34.4677 29.8344C33.9324 28.5427 33.7921 27.1213 34.0647 25.7499C34.3372 24.3785 35.0104 23.1187 35.9989 22.1299C36.9875 21.1411 38.2471 20.4676 39.6184 20.1947C40.9898 19.9218 42.4112 20.0617 43.703 20.5967C44.9949 21.1317 46.099 22.0377 46.8759 23.2003C47.6527 24.3628 48.0674 25.7297 48.0674 27.1279C48.0681 28.0565 47.8858 28.9762 47.531 29.8344C47.1761 30.6925 46.6557 31.4724 45.9994 32.1294C45.3431 32.7863 44.5637 33.3076 43.7059 33.6633C42.8481 34.019 41.9286 34.2022 41 34.2024V34.197ZM58.7381 34.197C57.3399 34.197 55.9732 33.7824 54.8107 33.0057C53.6482 32.2289 52.7421 31.1249 52.207 29.8331C51.672 28.5414 51.532 27.12 51.8048 25.7488C52.0775 24.3775 52.7508 23.1179 53.7394 22.1292C54.7281 21.1406 55.9877 20.4673 57.359 20.1946C58.7302 19.9218 60.1516 20.0618 61.4433 20.5968C62.735 21.1319 63.8391 22.038 64.6159 23.2005C65.3926 24.363 65.8072 25.7297 65.8072 27.1279C65.8079 28.0567 65.6256 28.9765 65.2707 29.8348C64.9157 30.6931 64.3951 31.473 63.7386 32.13C63.0821 32.787 62.3026 33.3082 61.4446 33.6638C60.5866 34.0194 59.6669 34.2024 58.7381 34.2024V34.197Z" fill="white"/>
</g>
<defs>
<clipPath id="clip0_2243_37008">
<rect width="82" height="82" fill="white"/>
</clipPath>
</defs>
</svg>
